<?xml version="1.0" encoding="UTF-8"?>
<svg width="50px" height="50px" viewBox="0 0 50 50" version="1.1" xmlns="http://www.w3.org/2000/svg" xmlns:xlink="http://www.w3.org/1999/xlink">
    <!-- Generator: Sketch 60 (88103) - https://sketch.com -->
    <title>图裂</title>
    <desc>Created with Sketch.</desc>
    <g id="活动页" stroke="none" stroke-width="1" fill="none" fill-rule="evenodd">
        <g id="切图" transform="translate(-5909.000000, -191.000000)">
            <g id="图裂" transform="translate(5909.000000, 191.000000)">
                <rect id="矩形" fill="#FAFAFA" x="0" y="0" width="50" height="50"></rect>
                <path d="M24.3962659,14 L23.7276233,15.3414374 L15.1934327,15.3414374 C14.3878463,15.3931989 13.77675,16.0882161 13.8285103,16.8938026 L13.8285103,16.8938026 L13.8285103,30.9269098 L19.3107933,24.5558604 C19.5292748,24.2627298 19.8733856,24.0900308 20.2389806,24.0900308 C20.6045757,24.0900308 20.9486865,24.2627298 21.167168,24.5558604 L21.167168,24.5558604 L24.8605267,29.3099092 L25.7262918,30.3718978 L22.6700493,35.7391304 L15.5982668,35.7391304 C13.8876562,35.7319982 12.5035661,34.3452335 12.5,32.6344001 L12.5,32.6344001 L12.5,17.1111939 C12.5,15.4003604 13.8809698,14.0106983 15.5918033,14 L15.5918033,14 L24.3962659,14 Z M34.1680314,14 C35.8788649,14.0106983 37.2598347,15.4003604 37.2598347,17.1111939 L37.2598347,17.1111939 L37.2598347,32.6344001 C37.2562686,34.342559 35.8761903,35.7284322 34.1680314,35.7391304 L34.1680314,35.7391304 L25.7770128,35.7391304 L28.8320408,30.131448 L27.4064948,28.5291575 L29.9636069,25.9593412 C30.2174687,25.639659 30.6134324,25.4668036 31.0204589,25.4979793 C31.4274854,25.5291551 31.7925054,25.7602971 31.9947202,26.114912 L31.9947202,26.114912 L35.9313244,30.8689608 L35.9313244,16.8938026 C35.8754019,16.063172 35.2158128,15.4008251 34.3854227,15.3414374 L34.3854227,15.3414374 L26.5136341,15.3414374 L27.3215772,14 Z M27.0895582,19.344683 C28.000918,18.4331003 29.4786181,18.4319859 30.3908695,19.3426771 C30.8296963,19.7807174 31.0762929,20.3752998 31.0762929,20.9953387 C31.0762929,21.6153776 30.8296963,22.20996 30.3908695,22.6480003 C29.4783953,23.5584686 28.0006952,23.557577 27.0895582,22.6459943 C26.1784213,21.7341887 26.1784213,20.2564886 27.0895582,19.344683 Z" id="形状结合" fill="#E0E0E0" fill-rule="nonzero"></path>
            </g>
        </g>
    </g>
</svg>